<?xml version="1.0" encoding="utf-8"?>
<!-- Generator: Adobe Illustrator 24.3.0, SVG Export Plug-In . SVG Version: 6.00 Build 0)  -->
<svg version="1.1" id="_x32_" xmlns="http://www.w3.org/2000/svg" xmlns:xlink="http://www.w3.org/1999/xlink" x="0px" y="0px"
	 viewBox="0 0 800 800" style="enable-background:new 0 0 800 800;" xml:space="preserve">
<style type="text/css">
	.st0{fill:#4A29ED;}
</style>
<g>
	<path class="st0" d="M386.49,167.03C347.98,128.5,321.61,61.22,308.53,0c-13.1,61.23-39.44,128.53-77.97,167.06
		c-38.52,38.5-105.82,64.87-167.03,77.97c61.23,13.08,128.52,39.43,167.04,77.96c38.52,38.52,64.88,105.81,77.98,167.03
		C321.64,428.79,348,361.5,386.5,322.97c38.52-38.52,105.82-64.87,167.02-77.97C492.31,231.91,425.02,205.55,386.49,167.03z"/>
	<path class="st0" d="M636.67,475.53c-22.99-23-38.77-63.22-46.58-99.79c-7.83,36.57-23.55,76.78-46.57,99.8
		c-23.02,22.99-63.22,38.75-99.79,46.58c36.57,7.83,76.77,23.56,99.79,46.58c23.02,23,38.77,63.22,46.59,99.79
		c7.81-36.58,23.56-76.78,46.57-99.8c23-23,63.22-38.75,99.77-46.59C699.9,514.28,659.69,498.53,636.67,475.53z"/>
	<path class="st0" d="M228.68,554.22c-6.57,30.7-19.77,64.47-39.09,83.79c-19.32,19.3-53.07,32.53-83.77,39.1
		c30.7,6.59,64.45,19.78,83.77,39.1c19.32,19.32,32.55,53.06,39.12,83.78c6.57-30.72,19.77-64.46,39.1-83.79
		c19.3-19.32,53.07-32.53,83.76-39.12c-30.69-6.56-64.45-19.78-83.77-39.09C248.48,618.7,235.24,584.92,228.68,554.22z"/>
</g>
</svg>
