<?xml version="1.0" encoding="utf-8"?>
<!-- Generator: Adobe Illustrator 24.3.0, SVG Export Plug-In . SVG Version: 6.00 Build 0)  -->
<svg version="1.1" xmlns="http://www.w3.org/2000/svg" xmlns:xlink="http://www.w3.org/1999/xlink" x="0px" y="0px"
	 viewBox="0 0 400 300" style="enable-background:new 0 0 400 300;" xml:space="preserve">
<style type="text/css">
	.st0{display:none;}
	.st1{display:inline;fill:#232F68;}
	.st2{fill:#87D0C7;}
	.st3{fill:none;stroke:#87D0C7;stroke-width:16.9134;stroke-miterlimit:10;}
	.st4{fill:none;stroke:#1E1E1E;stroke-width:16.9134;stroke-miterlimit:10;}
	.st5{fill:#1E1E1E;}
</style>
<g id="Layer_1" class="st0">
	<rect class="st1" width="400" height="300"/>
</g>
<g id="text">
	<g>
		<g>
			<path class="st2" d="M75.4,116.76c7.83,0,14.27,6.79,14.76,15.34H75.4H60.63C61.13,123.55,67.56,116.76,75.4,116.76 M75.4,99.85
				c-17.51,0-31.71,14.92-31.71,33.32v15.85H75.4h31.71v-15.85C107.11,114.77,92.91,99.85,75.4,99.85L75.4,99.85z"/>
		</g>
		<line class="st3" x1="77.01" y1="196.37" x2="77.01" y2="149.02"/>
	</g>
	<g>
		<line class="st4" x1="121.12" y1="105.69" x2="121.12" y2="196.37"/>
		<polyline class="st4" points="121.12,143.53 158.71,143.53 158.71,196.37 		"/>
	</g>
	<g>
		<path class="st5" d="M206.1,153.82c7.59,0,13.76,6.17,13.76,13.76s-6.17,13.76-13.76,13.76s-13.76-6.17-13.76-13.76
			S198.51,153.82,206.1,153.82 M206.1,134.21c-18.43,0-33.37,14.94-33.37,33.37s14.94,33.37,33.37,33.37s33.37-14.94,33.37-33.37
			S224.53,134.21,206.1,134.21L206.1,134.21z"/>
	</g>
	<polyline class="st4" points="253.49,196.37 253.49,143.53 283.09,143.53 	"/>
	<g>
		<polyline class="st4" points="297.11,196.37 297.11,143.53 326.71,143.53 326.71,196.37 		"/>
		<polyline class="st4" points="356.31,196.37 356.31,143.43 326.71,143.53 		"/>
	</g>
</g>
</svg>
